<mxfile host="app.diagrams.net" modified="2023-03-07T09:08:17.242Z" agent="5.0 (Windows NT 10.0; Win64; x64) AppleWebKit/537.36 (KHTML, like Gecko) Chrome/110.0.0.0 Safari/537.36" etag="sKlu8bo2ASP9RY8ZNokp" version="21.0.2" type="github">
  <diagram name="第 1 页" id="pSkS48rG2tFjuAGCM1ym">
    <mxGraphModel dx="2048" dy="629" grid="1" gridSize="10" guides="1" tooltips="1" connect="1" arrows="1" fold="1" page="1" pageScale="1" pageWidth="827" pageHeight="1169" math="0" shadow="0">
      <root>
        <mxCell id="0" />
        <mxCell id="1" parent="0" />
        <mxCell id="4pmCsLbF5WX71sMFGeFw-6" value="" style="rounded=0;whiteSpace=wrap;html=1;" parent="1" vertex="1">
          <mxGeometry x="90" width="680" height="210" as="geometry" />
        </mxCell>
        <mxCell id="4pmCsLbF5WX71sMFGeFw-3" value="" style="shape=image;verticalLabelPosition=bottom;verticalAlign=top;imageAspect=0;aspect=fixed;image=data:image/png,iVBORw0KGgoAAAANSUhEUgAAAMgAAADICAYAAACtWK6eAAAAAXNSR0IArs4c6QAAIABJREFUeF7tfWmYHNV19nt7me6ZnulZeno2EMhC090DjkMM9hMcx5DYnz8LISQhic3BsRMHG8tISJYB2wmb8xEjhCRksPHyhdgJGLTbQuAtCZjEcgLCdjBMd48sQEKzr93Te1fdPDXS8Eij6elbVbeWnqr6pUd1zrnnvOe+U7fr1L2HwL5sBGwESiJAbGxsBGwESiNgE8SeHTYCcyBgE8SeHjYCNkHsOWAjoAwB+wmiDDdbyyII2ASxSKLtMJUhYBNEGW62lkUQsAlikUTbYSpDwCaIMtxsLYsgYBPEIom2w1SGgE0QZbjZWhZBwCaIRRJth6kMAZsgynCztSyCgE0QiyTaDlMZAjZBlOFma1kEAZsgFkm0HaYyBGyCKMPN1rIIAjZBLJJoO0xlCNgEUYabrWURBGyCWCTRdpjKELAJogw3W8siCNgEsUii7TCVIWATRBlutpZFEKhYgoysjtwtFHFjNklC3jp6yOOm99Xviv3YInkzdZgTq0NL8oLz/kwCF3vrxN86XY49gd3dXzW10yWcq0iCTNwYen9yxHFILBLHdFxVHiScXkSCe7v7KjER88Xnob/oahfGEMtnUTcdk8NFxVo/3t+wK3q40uKsSIIMrgj/Jpt0/OFMsKW/Vi37YxdXWhLmk7/zLTcVSZDeJV25Yh5VMyeWqwr5jue6PfNpwlVaLPMtNxVHkOHV4dvTY44HSk2c2oB4Z9POWMn7lTbhKsnfoTXhL2ZGHZtL+VzTKN7RvDtW8r4ZY604ggytjPx3JkHeVwpMbx093LI/eqkZwZ7vPg2tDP9XJuF4f6k4q/30peC+aMn7ZsSn4gjStySSKeSJtxSYrirkOp7rLnnfjEmYLz71LolkinPkxl1Fs+3PRasrKd6KIsjY6sityTGyoxzAvkZsCOzu3l5Ozr7PD4HhVV1r0+N4pJzFuka6rnF39Ovl5Mxyv6IIMrgi8p/ZJPlAOfC8fvqrln3Ry8rJ2ff5ITC4IvxiNun4YDmL3jr6y5b90T8pJ2eW+xVFkN4ru1LFHGrKgefy0EzHs9GycuXs2PfZEei9smuymIOvnIbLg3THs91l5crZ0et+xRBk/LrQpxPDzu+wAuMPirc0PBV7jFXellOOwPCayCfTo+RxVgv+ZuFvGp6Of5dV3ki5iiHI0MrIv2cS5ApWsKr94ovBfbEPscrbcsoRGFoR/nkm6fgwq4VqP30+uC/6Z6zyRspVDEF6l3Yli1nUsoLl9iDV/mw3szyrXVvubAT6roxMFHLEz4qNy4vJjoPd73yKwqpnhFxFEGT0uvDHJ4cd/yIXoLpm8a8an44xP/rl2rflgfGV4TWJhGOnXCxqm8W/aHo69oRcPb3lK4IggytDP80mnP9HLjjV9eK/B/fG/lyuni3PjsDgNeGD2QnHlewaJyW9fuFnLfviH5Wrp7d8RRCkb2lkvJAl9XLBcVfTZPszUeZHv1z7tjzQu7RrtJhFo1ws3F460X4w2iBXT2950xNk+LrINelhskcpML6AeF1gZ0z2EkDpeFbSG10VunJy3HlQacw1zXRV89PRvUr19dAzPUGGVkYOZBLkKqVgeP30py37ov9Xqb6tVxqBgZVde3MJrFSKUbWfPhPcF12mVF8PPdMTpG9pZKSQJU1KwaiqphNtz5j/Ua40PiP1+pZGBgtZElTqg9tLR9sPRgNK9fXQMzVBJtaEPzYx6nhOLRC+JnFJwN6OqxbGM/THrun8UHLC9YJao/VN4hIzb5U2NUEGV0X2ZMfJNWqTUNNIn2nebe5HudoY9dYfWNn1ZC6BG9SO622ge1v2RFeptaOVvqkJ0rcsMlhIK3+ET4NWVUNH2w6Y+1GuVYK1stu3LNJbSJN2tfbdNXSo/UC0Ra0drfRNS5DktZ0fGhtxvgDwcJGioan4Af+uI4e0AtJKdsev6XpvYoIe5pWbxoBwed3Onl+YEUMes0+TuIZWRZ7MjBPVj/Bp52oasa95d7fq5ZomwVaY0eGVXf8/ncBf8XK7uoH+ILgneiMvezztmJYg/VdHevMp9Y/w05ZZw20HoorfuPAEvdJt9S/rOpZPYwGvOKp8tK/tR9EOXvZ42jElQYauD1+aHXG8REV+oUonaInewrvPP3DkNX5WrWfpxMfCYVFwRHnnxhsQ3xd8Kvay2RA1JUFGVkf+MTVGPsUbrNom8emmXbHredu1kr3hVZFH0uNkLe+YfY308cDuKLdlGy//TEmQwWXhY9m0g9sjfBosj48OtP4o2sYLPCvaGVgWOZpLk3fxjt1bIx5vORA7j7ddtfZMR5Dh6zq7sqOu10SRy+urM/BxOADqEc5d8Ez8hFrgrKh/7OpwhyPjOCFyXPpO4+hwgHqbihc1P93TbSZsTUeQ0dVd35wcw2e1AsnXRP8psCvKffmmlb9msju0IrIlkyRf0Mqn2kY81rS7+xat7CuxazqC9F8dOZpP8X+Ev7PMqqW9rT+MnqMELKvr9C+LxPNp0qkVDlU++kbbj6KLtLKvxK6pCNJ7Y9f5dARHhSLeObVdSVBz6ThdQD7naXzX878Z5217Ptt744qLG6o8uTGhqF2UThdEEsCijie739JuFHmWTUWQkVVd21PjWC8vBPnSNY3iN5p3x7i/iZHvSeVoDK7o+mo2ib/V2mNfAx4O7Om+TetxWO2biiADV0fiuZR2j/BpUKpr6bHgD6Pns4JkywEDV0dey6XIhVpj4fHRntYfRUNaj8Nq3zQESdwQak6OOvuFIpysziuVc7pASVVNbceBw2mlNqyk17vskhqaT08KRf5vFmfi6HRBqGsS2vw/iA+bAWPTEGR0dfhrk2OOO/QCxdcgPhjYE7tdr/EqeZzhFZEvpZPkfr1iqG0UH2jaHbtTr/HmGsc0BBlYEXktl9T+ET4NhreevtGy11xvTMwwIWbzYWB55Le5SfIevfzz1NHXW/dHL9JrPNMT5Piay6qdifFEsQiXXqA43aB9QzWeSw8fLug1ZiWO8/Ill7g7gulssaDdm8WZuLhcKAr+Bv+CXYcyRmNmiifIyLWRe1Ij5G69wfA10bsDu6L36T1uJY03uKprfXYcureS8AXovYGd0XuMxsoUBCnV+FFrcLx19EjL/qhmhS+t/dfD/uDyyMvZSXKJHmOdPoZZGrKagiClGj9qnRS3B2L7s92avzXTOg4t7fctiRQLeaI7RmZpyGo4QcavDd+RGHF8Tcskz2W7rgEbG/d0bzNqfDOPO7I89OnUJHvLCd6x+APinQ0GN2Q1nCBDK8IvZZIOw5puVvvp68F95nhjwnuCqbU3sDxyKDdJ/litHaX61XXiy8H9sZINW5XalaNnOEH6lnRlCnkY1nSzykOFtmejur09k5Mco2X7lnQVCnn93izOjNddhWz7c92GNv00lCAja8LrU6MO3d+QzExEdYNwc3BPnLl7ldETV4/x+5dHbsxPEsPbE/iaxNsCu2IP6xHzbGMYSpDBFZFfZpPE8Gab1X76SnBfVPc3NUYlnWXcoZVdL2QSMLxDl7eOHmrZHy3buJUlJiUyhhKEtSmnksDk6Li8KHYc7HbL0Znvsr1Lu3LFLKqMjtPopp+GEWRodeQzmTFimiabVX7c0Lav+ymjJ4QZxu9fFl6eTzv2m8EXyYfqRvrZ4O7ot4zwxziCrIw8n0mQy40IerYxa+rpL5v3Vk7/bi1xG1rR9fNMEsxNObX0ZYogfvpCcF+UuYErT38MI4jcppw8g57NlttLC+0Ho4YvKbSOk8V+79JItpglHhZZPWSMbPppCEHGrg/dlBxyfl8PcOWM4W4QlrbviT8rR2e+yZ5Y2vkRIev6mdniqgsKn2h8Kv7PevtlCEGGVkR+lkmSj+gdbLnxqv3034L7oqZZWpTzV4v7gyu6ns0msUQL22psVtfRnwf3R2U3clUzpqRrCEH6l0bG8wqacqoNtpy+u4bm2g9EDStalvNPj/v9V3Wl8hnU6DGWnDGqvHSizYCmn7oTZHB1eE12TH5fbTlgqpL1Ch8672D8RVU2KlT57Y9FLhML5Jdmdd/bKF7bsju2S0//dCfIyDWRZ1ITZKmeQcoZq7qeHgzujSpuGipnLLPJDq3s2p9JYLnZ/Jr2x1dPDwZ0zo3uBOlfGhnJq2jKqXXyqmqQbjvQ7dN6HDPa718WSebTpNaMvkk+VXnpaJvOTT91JcjQmq6lmVE8Y9YETPtVdDv/cNGPf/c/ZveTp3/Hlr7n3cgWXuVpUwtb1U24KrirW3Fvdrk+6UqQ4Wu69qYnlPfVlhucUnmfH7sC+7qvVapfiXrDK8M70wnHGrP7XlOPfc179esUpitBRj8RniB5+M2eBKGIDERirX6GhF7mdMPQT8tZ5gWtQqLp+7F6FlkeMroRhG5efLnQ7ngehwEIPFzX1kbv67rvMtU2oDLWOy6sgKRIKbkEcPaJV5Dbj6ju0c4CuG4EKW4N/QBBXI8UgApogjY57EBiUDd4WHKlmYy/haK2WYOmH7w9lk7Kkl6fDOEp18Y4twavc7mp2wwofiPUhzqc7O40AMA053fPDk8xTzB4RLND5nlPHVX2WhaLcFVRVTY0V5ZOUm49NUoS/a7PxVX3aGfxWReC0AfClwpt9KUzjh47CsAUp6+WgIkCvRY58KSjSzDomwqWKQqgGcDpXUNEwNlP3kfu0L7ppy4EKW4N/ROC+MuZcJBXAWr42Xmlk5QYdGByWBeIGGcKf7HaZgp/i3mXV6QaoH8wS9xD+J5rY/yT/BE506Iu2Rce7TxO/eTcs4KRDv38tdYhKrdfyBEM/X5+L7OCF4hwe0y8vPojALPs9SQJ+rZzbQ/3Rq9n/RFXPn3YNJNfW3xRdbvjVThKfBgp9XmKs9nSW0qaNn3z/G1W+4WCMV+ssiRT6hLSUEJQBM30iX9Qd6e2fe81f4IUt4S+hVbcPBce9DhA+lgQ019mYpAgNTw/nyK+ZhH1LeZ8etB2gJR7Pgzg265N8c9oOSs0J4jwaPgN6qcLywYRBZAoK6W7QCFLMHR0fhIkuEiE22tCgkil5Ej5VJMEedO5Nsa9Z/vpI2tKEPoPCxcW29xHiYuwjWPCIiKlQN88fZvV3iWAMTPlZysviVPFQBZztEipq7+wiHzpzTdZ5JXIsE1cJZYBFLaGHyZBuo5Z3aRFxIl+gtTo/HqK+JpE1LeZ8OkxXQxknDR0iOxwb4xp1vhVU4IUHw31wI/FjLGeFDNhETGfJRieZ8us5kWi9Pm4rNRoLnx6MZB1sASOuNbGNWthoRlB6I7FwWIt6SduIv9Pr9mKiJSgt1t+GKw5NkKuo0sEiIkIMrMYyAgKLVDRNUnbyLojQ4wqssQ0I0hhS+dm0kq+KMub04WlnQkmKiKO9RJkxucHSaobRDR2mIgc0jfEsxUDGScPHaAPujf1aNKQVTOCCI+EXqf16GKM8WwxkxURc2mCkTfnB0ECC0V4akxEkBLFQNa5QybQ7fx8XJMe7poQhN5zSY2wIDmBKpVH55upiDiPllmmWl7NVQxkZUgeRefxunpyD/++95oQRNgSupe24i7W+OaSo8cpSJ8mbsp2b+wEQWaisp8i1fUiGs8xx9ODtlOQBXxySwZwn3NTnHsjWD7ezZhqha+H/oc0qFlVzjBokiJiPkUw/FZlE6T5fBFVPhMQhLEYyPpXjI7jVfetce693LUhyHfDeeKhXNsJkFcAWmSFSyM5EeiNVvZOw46IAP06ns+eB+IC6Hv55ojmSMH96Rj3s5W5E6SwJfRl0or/xzd8wCw7EUeOE+SSlfkU8dSJCCwwwdNDZjGQdS7RAXzFvSl+P6s8ixx/guzoPEwaCee/DydDoQMAMXgnYj4FDL9VmU+R5vMFVBl84hc9HyDTOwNZZqgMGTpGX3Gv6+HaKYw7QYrfCWXhhXZH5xtcRKQi0Fehy6z2iAAFZVsZU7SMqMJiILMDWeRcfxPnerYyV4IIW0IbaCu2MgekUNDonYgjbzmQS3GFTiES7GreWoqm84zbOVhyZyB7CEySZAAbnZvi3Prec81ycUfnITTq0Ffb4CJiLgmMHK+sZVZggQBPHdMc00ZIZTGQ2akx+ivXuh5ujWG5EkT4dihNq3U6fMzAImIlLrMMXV7xKAYyMoRkkHHeHOfWvoEbQYQt4c/SVvpNxji4iBm5E1H67ET6/KQSLumzEunzEiMupp2BnB0jA+QW56YYlwax3DJcfLjzF2gif8o51vLmugEky4vxlsgmgdEKWWY1LRDgNWJ5JY2p/Gs85SkbpS+61vdw6fHOjSCFb4cmSfXUuXe6X/QVClLkFgqT/6IA9Mcq43dIW1iAQ2dXqYuCvFffnEwnjmaQct8c59LGgUsExW2d16CZ7GGaWVoIGbQTcej3ThRyWgTEz6bbAwQvMODcXY2KgazICH243nN7/GlW+VJynAgS3oVmulqtM6r0DdiJmJkAxk7o/KdZJkiN5wio1u0s9FPOKdkZKDOucuJ0mOx3b4itLCdX7j4XgtCtoXuFIJ+vd8s5POd9nYuIlbDM0n15pXUxkHGCkH76gPOLPXcyipcU40OQzRdeLLQXTXFGIn0VIDruRBw84kQxrzYN2ui7qoCWxfotr2g1QFTsDOSJgrPPeQm5vfsVtTa5EERygvn8K7Uel9PXuYiYHgPG+8y5zGpoF1DTWA4wjvf1KgaWcZnneVncCFJ4KHQPaQH3DSuK0qdjEVEsAv1xcxKkLSTA4VKEoHwlHYuB5Zyjg7jX/YX4PeXkWO5zI4g0WGFLZCtpFTewDKy1jJ5FRIkgElHMdEnEkAiix2VEMbBUXHTAsc29KbqRV9xcCTJFks2dt5N63I0awq3crzjYGIAJxdrMiqkxByZMsi142un6dgpfow7Vc+kNWZgZKu0E0zRNJ3Cv+/aezTwH4U4QybnsP3QuctaSg6SB5YRVnuGcbYscBqjGf0iFAjDQY65lVmunACfXPZ2zYOsEKNfdF8rmAp1At6uQv5Js4H8EqSYEmQ6z+FDnvyCAG+E07gRYkgKoDj0R+6NOiDr8wWaZQg4CtEldozS+yEUANeTbiVOBCZSKo+SJqo3xm7QKVVOCSE4Xt4RuInXYTmvQpFUQ5ezqsRMxNeLAxIDmcJYLdep+fSuFL6AtW7XcGcgSJElhpJh2rPNsjD7JIq9URreMFnaE/os04v1KHVWtp3ER0UzLLM2XV0YXA8fpIdetPR9QPScYDOhGEMmXwpbwdtJA18Kj8kA5hsBmFdH4OFOz9FbXtOe5ymNClaZuSi+HAh3HDvem+CZVdmQo60qQKZI8EPowqcP3UIdzZPjJR1TjIqIZeqtr3vPcoGIgmaTHHCnh42TT0f/gMxnYrOhOkGm3itvCP0Ez/SibmxylNCwiSp+cSJ+eGHlJn5ZIn5hochlVDBzFQdf6+FWaxFTGqGEEmXqabA59mdTTv0WNtKVfv4scB6hGPRGNXmZptbwi7QAt1zOQdwozSNEk7nJ/Ia75QSClXDeUIJJTdNvChUWX5yekgUp/n3S7aAwgGhQRJ4ccSAwZA6s/SFEb5P/2itYDROdiIJ3Aay5R/BhZd+Rt3SbFLAMZk8lZHCluDf0ATfQ6XWsmGvRELOSBIYOWWcHFAty8l1cyegZymcgCpRjD910bej7JxZ5KI6YhiBRH8cHwp1BHt8JXsju2ynBnqGuwE9HIpp+aNOXUc2dgGsNIuda6Nr6+k2+ilVszFUGmwyhsD71EArhUeVgyNDXYiTjR70BqVF9ofU0U9W2cl1c67gyk4/hP963xD8rInC6i+mZRRkjFh0Jfp/W4hXig/WshzkVEI3qrc+95rlcxMI8CSdCtzg3qd//JmF7MoqYlyNQP+AcXXyHUOJ6EH+3MESkUJL8DaFqh8gw16fz0vte15/Xpw7ZfKIBXMqXvsOm7+WAxp5Uk3qI58Qb3hiOHdBhN0RC8MFU0OKuSuC30M7EZH2GVVyTHuYg43u9AWqdlVk0TRQPP5ZUexcBRcsC1Pna1olzpqFQRBJHwKDwQ/jvSIH4ZNYTr6d1nYM2xiJhPEwzr1PSzeaGIKl5NObUuBmaQIgnyFeem2MM6znPFQ1UMQaQIU19f0FGFmudJA9WscTykt+69ivF8R1HPt1nc3l51ADhXfeylLNAJvOoi+Y+StW/2azcKX8sVRZDp0IsPhXbSJrqGuDRyn9NOxLFeBzLjGvl4CozqBorGDg5vr7TcGXiytvG4a0PPX/Odvtpb0zZ7Gvpf3Bz6BPzYAR80ORaN/Bqg0u8SFVcuQzDyhrbt2gLvEuGpVtdWjbgBKv3u0OAiaQwVM45bPLdFjTt5U0VcFUuQ6ZgL2zsPkwD/lm88diJSkaAvqi1B2iMiiEMlQTTaGUjH6YvuW/kcIq1ijqtSrXiCSNEXHwx/A430ZvCumQwCeFMVvhh9myCb0IYkXr+IpnPVkQMLAbSoi/Es7Rwpkkm62Xlb/CucLetubl4QREKtsPmCPyE+52740cYVxTcADCm3KLVqk1q2aXEFzhfhUdPzPAjgXXw9I0m84RDIteTW2Mt8LRtjbd4Q5J0f8FvD/4Yg/TOucP4OgMIiopbdqFR1jZIOZeJdDBwj+13r1B8YzTV3Ko3NO4KcfJpI+0xwF2o4ddtVWUQcPU6Q5dxb3VsnoklNz3OOxUCSoWlhktxRtTH+iMr5aDr1eUkQCWX6rY5mIV/7KzTgAi6oqygiarHMUrW84lgMpEn81uVLfZj85YkRLjibzMi8Jcg0zuJDnbvFJrKKxzER5G2AKigiavE2S+nbK9IBUB7FwOLUhrPvOG+L32yyOc3VnXlPkKm3XFsiNxCf+BithV81egqLiCNvEeRSfH6se3wiAucreHvFqRgonUlFc+SvXetjP1SNp8kNWIIg0zkobA/9mgRwseqcSJ1QZBYRc5MEI8f4ECRwnghPrUyCSMeQcigG0nH6gvvWnitUY1ghBixFECknwpbQDrEBa4kHymergp2IPN9mKXp7pXZnYA4CSZL7nRtid1XI3ObipuUIMvUD/tHQ+wTQZ+AniktkZBCgMouIw28S5NPKeSn5XlUjonmhvKcHWQhQxZFKbbbpMSfFcrK25zdcZl0FGbEkQU6rmTyPIL1ccb5kFhGzCYLRt9URpOlcEV6/DIKoLQaOYa9rXXyVYowqXNHSBJmqmTzY+UXiJ3+PGig6D0TOTkQeTT/lNOVUszOQpGlGSGFj1caexyp8jqty3/IEmVpyPXFeozDqPYwGBR9eFICpL38Z0zB01AFpz7qSy+2lkPaes1zSCFNf6CroETK1b6Mxezn5+LExlrHms4yyTM1TRIpbQ0+jEdfKrplI06iHDZTMBMHYCWXLrMZzRFTXM1JR2lImt4GnVNtI0Mec63tuYYtm/kvZBJmR4+K28GpSTf+R+lAnJ/30BEBOlNdQ0/STtSknPQcgco8GT2EMeXqTa13PwfJRWEfCJkiJXBe2h35LAniPrKnAWEQcjDtRlNn00+UCWliaciooBtJx+gv3rT3KX1bIAqmyhG2CzJEvYWtkK/WL6yGjZkJ/DZAyRcT0OMF4r7xlVkOHiJqGuZdX1A0QGcVAmoOIFO5zr4/fW1nTVj9vbYKUwZo+2nmxQMlPUQ/phWnZi04C5PW5xZQss1iWV/RCgNSWdfGkQIK+7XS4lpBbuqWP+e2rBAI2QRinRnFb6F/RjD9nEh+gwFtzQEuB/h723upTPc87Bcx5Mpz0bVYrYzotXttgyuEpIUZE5Zicv7L5LaENjlo8AB/Dy9MyRcTUCDAxwHb6Yn2rAF9gDlxZi4FpmkOWfN61Pv7d+ZslvpHZBJGJ51TNZMT7ChqndnPPedHfAaTETkQ5TT/naspJawDCsDOQTuB1V2P2g3Zto1zWzrxvE0QeXu9IF7eGn0AjvXHOmsnUTkTph/XsMPdFnZA+YpzrIg5A+jhx9osCf0TmLgZKb8sS9Juu9T2fUxiqpdVsgqhIf/Hh8HK48QTqqK+kmTmKiKkRgomBud9m1beK8AVKvL0qVwycxERRJNd718Z+rCJMS6vaBOGQ/sLDna+QptIvWOnbAJllJyLLMqvU8op2AGSOnYFm7bfBAW5dTdgE4QS3sDW8mfrpJnhKrKfiAKR97addEvgnyrRJOOdC4ezvvBoAlOjoSHOgjjS5y7ku9vecQrO0GZsgHNOfe2TxRU7ieB5+SO1nzrrobyhI/kzIk8MOJAdnT0NdC0Vd85k/UmgVBbm4RNoS6HXW4MPkU/Eox7AsbcomiAbpF7eFfyLO1gN+aifimT/a5+qtfnbPcwpcRIBZfvE4xsgPHetiKzQIx9ImbYJolH5ha+jztAbb4JvxnmvGcaZzLbPOWl7NdkxoGnlk6Wdd63se1ygUS5u1CaJh+k/tM3kZDVh0xjAzioiJIQcmZ/RWrw1S+E/veT5LMZCMI+poyn7Arm1ol0SbINph+45lYVvoe7QBnzjjWfKa1BHopEgxCwwePbOq3nqBAKfnlAlpSSUdujB9WeRMKh1SU3YImyBlIeIjkH0kdKXLQXa+UzPJAzjtCITeGW+zOi48rTgoHVR0akMwmURCpHSV+3M9P+fjmW1lLgRsgug8P87oAT9OgfjJFCQGHJgcOfnv2gCFv/XU26sQBRpO/j8do79yr+u5TGeXLT2cTRAD0l/YFroftfiS1I50eidiIQcM/f7kMit4gQC3B5jeGUiz0nLMcZ/7tujdBrhr6SFtghiUfvr4ok4h7fyPqbO5pCLiGNDbfZIgHV3Cyf3kUjEwgX6nX/hTctPvjxjkqqWHtQlicPqL28PPIkCXSDsRE6eOJvWfJ57cGTiKg6718asMdtHSw9sEMUH689s7P+P0kkfyLxOX5I77UloUs/hc1W3x75jAPUu7YBPEJOmXaibFAa+02IKrNRuyaxvmSIxNEHPkYcoL4Z87p3ptOG/q+baJ3LK0KzZBTJL+/BORS6o+Hj2T6wtGAAAA1UlEQVQsuXP6v03inmXdsAli2dTbgbMgYBOEBSVbxrII2ASxbOrtwFkQsAnCgpItY1kEbIJYNvV24CwI2ARhQcmWsSwCNkEsm3o7cBYEbIKwoGTLWBYBmyCWTb0dOAsCNkFYULJlLIuATRDLpt4OnAUBmyAsKNkylkXAJohlU28HzoKATRAWlGwZyyJgE8SyqbcDZ0HAJggLSraMZRGwCWLZ1NuBsyBgE4QFJVvGsgjYBLFs6u3AWRCwCcKCki1jWQRsglg29XbgLAjYBGFByZaxLAL/C5pk0FDKj/fOAAAAAElFTkSuQmCC;fontSize=18;rounded=0;labelBackgroundColor=none;strokeColor=#f47668;" parent="1" vertex="1">
          <mxGeometry x="-2.25" y="83.00000000000009" width="64" height="64" as="geometry" />
        </mxCell>
        <mxCell id="4pmCsLbF5WX71sMFGeFw-14" value="" style="edgeStyle=orthogonalEdgeStyle;rounded=0;orthogonalLoop=1;jettySize=auto;html=1;fontSize=13;strokeWidth=2;" parent="1" edge="1">
          <mxGeometry relative="1" as="geometry">
            <mxPoint x="30" y="220" as="sourcePoint" />
            <mxPoint x="30" y="165" as="targetPoint" />
          </mxGeometry>
        </mxCell>
        <mxCell id="4pmCsLbF5WX71sMFGeFw-4" value="" style="shape=image;verticalLabelPosition=bottom;verticalAlign=top;imageAspect=0;aspect=fixed;image=data:image/png,iVBORw0KGgoAAAANSUhEUgAAAM0AAADICAYAAABLcWXaAAAAAXNSR0IArs4c6QAAIABJREFUeF7tXQmYHVWVPqc6nQ4YCDNGXIaBqEiSV6ceSyOL7IhLFJBRUcAVEXAUZVEZARmXQVFBUcB1FBlXxA10VHBFVAS1SXh17kuiEYKCgwOMIMukk3515juZ19gJ3ek6t6pe1euu8339Jd/X55x77rn196269ywINaXyABE1RWS3IAh2138BYD4APKb77/j/VdeD+oOID+i/InK3iCxHxBVBECxvtVq3pRqwZqqsB7CylpVoWKPReMLAwMABInIAAOwLALsDwEBOJt0PAMtF5EdBEFz/wAMP/Grt2rXrctJdq+mBB2rQdJ3cbDYVJP8kIvsDwNN74PvxIR4WkZ8i4k1BEFzRarVW93DseigPD8xq0DQajbmIeEwQBMeKyHM9/Je3yHoAuEJEvuycuyZv5bW+fDwwK0GzdOnSJw4MDJwEAMcCwOJ8XJmvFhH5WRAEX5w7d+5lIyMjG/LVXmvL4oFZBZpxsCDiSSLypCyO65WsiLggCC4bGBi4bMWKFff1atx6nKk9MCtAs9tuu203NjZ2aj+BZZIlu01EPjs6OvqRNWvW/LV+qMvzwIwHTRRFR4nIOwBAj4lnAv0aAM5h5h/MhMn04xxmLGh0d+l0Ou8QkdP6cWGms1lE/tU592/T8dW/z98DMxI0M3B3mWrlv4OIZ8VxHOf/aNQap/LAjAMNEb0FAC6YRUt+ByKeEsfx1bNozqVOdSaBZoCILgGAfy7VoyUNjohnxHF8UUnDz6phZwRoli5d+rSBgQEFzHN6tHp3A8Dt+iMityPixh8AwCRJFgVBsJOILAKA8Z/temGXiFzqnHtjL8aazWP0PWjCMGwEQXCliIQFLaReLP6n3tQDQDw0NHT7yMjIw5ax9FBi/fr1CiaNY3shABxmkTfyfpuZjzTK1OwGD/Q1aBQwiPhjAHi8Yc5pWDVS+VoR+fbo6OgVa9asGU0jlJZHA0KDIHg+ABwFAIenlTPw/ZqZ9zLwm1mXLFny2CAIjgiCQO1PROSOIAh+Ohu+rfoWNF3AOPNqb0FARL6kYJk3b97VIyMjGo1cOC1ZsmTRwMCAAuj5iLgsxwH/wMw75ajvEVUa3Jokyb9PEYL0PwDw2SAIrm61Wj8rYvyydfYlaKIoOlAjg3N03rVBEFzQarV+lKNOsyoiejkAnA4Ae5iFJxdYz8xDOenaqCYMwyMR8SsAMC+F3t/oqy0iXhzH8V9S8PcFS9+BJoqiSERaOXn39wBwITN/Iid9mdXsvPPOQ1tttdXpInIGADwus0KAVcy8NAc946D5ISI+06JPRH4LABc75z5qkasqb1+Bhoj+EQAYALbNwaEfTJLkwna7fVcOunJXQURPBQAFzutzUP4FZn5FVj1hGL4WEfW1zJduUPAws+5UfUt9A5pGozE/CAJ9R84UQyYi3xKRC9rt9s/7YdWI6GBE1J0n64nYBcx8ZpY5E9HFAJDHkfZVAHA2M6/MYk9Zsn0DGiL6eve4NouvPs7MefzlzmKDlywRXQkAR3sJ/03oncz8Ll8dRPTN7omfr4pH5BDxTxp4Gsfx5ZmV9VhBX4AmDMPTEDHrbXemB6bH6zLpcDkB5xBmvs5nPlEUXVRAAOwnROQc55yeuvUFVR40jUZDK8D8BACy3Kq/npk/3hcrMo2ROQDnOmY+xMcXYRgeioi5nzBqtZ4gCHTX+Z6PXb2WqTxosr4SBEFwdKvV+lqvHVvkeESk0QkvzTCG965LRBodofdKRZC3XUUYM5XOSoMm62sZIj6vX/56WRediD4CAG+yyk3g93pNIyKNvvg+ADQzjD2lqIhc5JzTU8PKUmVB02w2n5wkyY0AsL2P9xDx+XEcf9dHtl9kwjD8oEY3+9iLiNfEcewVgdBoNHYMguBsADjZZ+wUMpcx8wkp+EphqSxoiOjDAHCqj1dE5FPOuaIW1MekwmSISI/htVabmUTkVc65z5kFuwJEpK9pGsVwjK+OKV+BEL8Wx3HW08K8zdqor5KgaTabe3d3GfOkEXF5HMd5haGYx++1gEYQzJs3T0vgDnqMfXOSJPu2222tt+ZNjUZjd0R8OSK+LOfg2R8w87O9DStIsJKgiaLoSyKiNcms9FdEXDST4pzSOCCKon1FRG/bfeitzHyhj+DmMgWVyPI+7ctjTpPpqBxoulu+ntCYKevrhnnACglEUXSKiGginpXuAIA9mfnPVsGp+PMGT5bvr7zmNFFPFUGjcUkvsU5WRN7tnNNSTbOWiOgyADjewwFnMnPudRX0MEdE3uP51rD5NHLbET38s4lIpUDTaDT2DoJAT8ys9EVm1g/SWU3NZnP7JEn0OHhXoyOYmTWmr2OUS8VORHqg855ua5JUMpMxIeJr4jj+rLeCnAQrBZooii4VkTdY54aIe8ZxPGKVm4n8URRpyd1PWueGiMcXGQemhzudTuc91rSCzeeBiEeVnR1aGdBEUfQUEVkBANtYFnw2HS+n9QsRafLXcFr+Lt9PmPlQo4yZnYi+AAB6yuZF2pKk0+kcmPXEz2vwrlBlQENE+j3yTutk6l3m0R7LsNv0JIKCiDQn57XWtZ7AX2q4TWVAE0XRjSKyt8WR9S4ztbc8d5tLmDlLaE7q5cuYm7M+SRLdbW5KPWCOjJUAje8BQL3LTP0keO42a5j5aTk+X1tUFYbh+Yj4Np/xRORq55xW8+k5VQI0Pq9m9S4z/bPis9v0Osg1DMMPaWbq9LOZlOMIZva60/Mcb6NYJUDj82pW7zLTL7vnbtOzVzSdwfDw8Najo6Oao7PP9DN6FEcphRFLB43nq9lXmDn3IEGPRau8CBFpudwdDYb29BVN7Yqi6DAR8e230/PdpnTQEJEWatCCDRaaMZmYlkn78PrE8YnIM51zWrm0ZxRF0bka1eExYM93myqA5j8A4JUWZ2ndZudc2yIzW3nDMHw9Ilrrjb2Xmc/ptc+iKPqeT5ftXoO8dNCEYXibRiYbFihm5kKyBg029A1rFEVLRMRUKklEbnLO+XxjZPJLFEXDSZL8GBGtde0+zcwnZhrcIFwqaMIw3BkRf2ewF7QqTRzHXtmKlnFmEm8URezRVeEJeUY+p/VnGIZvR0RrW8SHgiCIWq3WbWnHycJXKmgajcargyAwBeBp0Tzn3LezTHq2yRKRVuJ5nXHer2TmzxtlMrMPDw8vGB0d1UvLxUZl2rz3vUYZL/ZSQeOT0rxu3boFdUtw21p3e5BqoT8LfYSZS2ny65kbpJHakWWCvrylgiaKoquN5VZ/zswH+E52tsotWrRo3vz58//XMn9E/FYcxy+wyOTJS0SrPHYbrwo7VrtLBQ0RaVdiMhhdaqCewc7KsRKRFlw82GBYz/5yT2YTEWlSnDYdtlBPno+yQaMdxx6T1iuaa+Oc+1ha/prvbx4gIv0+sSTqPcTM88vyoWcPop7UEygNNN0sQ1NeOiK+JI7jr5a1kP08rk9wZBAEj2+1Wv9d1ryJSA8ETG0QgyCY32q1HirS5jJB41OmqSfvrEU6vCzdPpecQRDs02q1Sgm/Vz8RkZ6GnWXxmYi8wDn3LYuMlbc00Pic6NSRANbl/Rt/t+3f1RYNIrLMOXeNRSZPXu3NAwD6LZaaROR9zjkT0FIr7zKWCZqTRcTUtm9wcHD75cuX322dZM0P0Gw290iSxFRHQURe7JzTvkClERH9AQC0A15auoKZfWrmpdVfXmpAGIbnIqIpQI+ZSwN5ao9WlHH33Xd/3IYNG0zfJ1WoI0dEGjdnacR1IzPvW+QylPYQhmF4CSKeYpjc3czsVQzdMMaMZiWidQBg6fZcejS5x7fYXcz8xCIXsjTQEJGpKCAiujiOLXc6RfqtL3UT0RoA0Aa4aan0An0+32IPPvjgVmvXrtU/EIVQmaCxXrb15Ay+EC9XRKnHBWdPLgu35B6fbzFEXBrHsUYUFEJlgsba9LTNzGEhXpglSj12mtOYWZtHlUae32KFJtGVCRpr3eF7mPlxpa3eDBiYiLSlRuqWHCLyauecJgmWSkQ0BgADaY0ouqFXaaDxqULCzOq4JK3zar6/eaDRaDwhCIL/svikFxeFaewhIu38/HdpeLs8L2Lmbxj4TaylgcYnJzxJkie22+27TDOsmTd6IAzDpyPiryzuQMSD4ji+3iJTBK+1OIg2l4rj+EtF2KI6SwONZ0GNXZm5VZQzZrJeInohAJguKhGxGcexRqKXSh7R8K9l5s8UZXSZoHkFAJj6PQZBcFir1cq9j31Rzq2S3m67C+1jaqEdmfmPFoEieIlIu7ylvrAUkVOcc9ZiIqlNLxM0hwOAKW1ZRI5zzn059exqxkc8QETaIvDNFpckSbJNu93W9I1SKYqim0Vkd4MRb2HmDxr4TaylgUYrj4iItoSwUOlHoBZjq8RrvUwGgAeZ2dT2pKj5EtE9APBYg/63M7M2kSqESgMNAAREtEH/NcystLx1g42VZCWiWwDAUvrqemY+qOzJNJvNxyRJYtrtik5WLBM0eqJzIyKmbq9Rh9L4PcKLFy9+0uDg4J1G6Ur8gSKipQBgLQxZaN5V2aCxBm1CkiQ7tdttDRevKaUHiOg1AGA6TarKxWYYhi9GRFO2btEpJKWChohOAIBPp1z7cbZS6nEZbawUOxHp4YmpYHyFjputtQ3+yMyWgu/mtSoVNI1GY68gCEzptCJyuXPOp+232TkzRYCI9Nh4B8N8KhOy5GH7tcz8XMNczaylgmbffffd6oEHHtBMzNQVaQDgDma2ZPKZnTKTBIjoGQDwC+OcfsjMzzLK5M4ehuEhiGjqXiAiFznnCi1bXCpo1MtEpAuqC2uh/ZhZL7xqmsYDRKT58tZyrRcy81vLdq5nh7wTnXPWV37TVEsHjU/Ba0Q8K47j95lmOkuZiUjb6z3fOP3Dmfk7Rpnc2X0KtydJsne73TbF2FkNLx00RKR3B3qHkJoQ8Zo4jpelFpiljEuXLn3iwMCAttlYYHDB7QsXLtz5uuuu03D80iiKoqNF5EqjAb9g5v2NMmb20kHTfUW7FgCebbS+523jjPaVzu75evMp59zJZRtPRAqYo412nM3M5xtlzOyVAI1nlfiet40ze7dEAd1l5syZ8xsReZLRjEJzUdLY4hlipap7EgVfCdAsXbp0p4GBAc3pnpfGqRN46t1mCof57DIAcFeSJE8rO0gzDMNPIuJJlmdBRH7knDvMIuPLWwnQdF/RfLbjereZZOUz7DKfY+ZX+T5Mecj57jIicoZz7qI8bJhOR5VAY86v6U6u3m02W2XPXUZbMxaa8Tjdw6i/99llVG5sbGzxqlWrfptmjKw8lQFNo9GYGwTBCgDQAD0L1bvNBG9l2GVWMPNwmTUYiMjrD6eI9PTwojKg6b6inQ0APnkQ9W7TBU6GXeaNcRxfavlrlSdv9+rh+wDweKteRNwzjmNTnWrrGBP5qwYaDY/ROxtL5RGdz6/WrVv3rNnei7PZbO6TJIk+eNbksVXbbLPNHr/85S9NLQazPHibyxKRz7UD9HqXUbsrBZrubqPF6d5kXRBE/HIcx8dZ5WYK//Dw8ODo6OgPAMAncazU8rNRFF0kIl5NcXu9y1QVNHsCwK99HmZEPC+O43N9ZPtdxqeOnM5ZRNYGQbBHHMd/KcMHRKSt2rVlu5nK2GUqCZrubnMFALzU7MX/fwie65zTrX7WEBFpL03NOzGTiJzrnDvPLJiDgE/Tpk2+LXr8LTM+duVez7qg0QBDDTT0ocoUhPAx3irjmQ68cRjdZZIkecbKlStNlTetNk7G71PxczM9PQmZmcz2SoJGDc3yngsAenxqKfmTx3NQio4oisZEJHWd44lGJklyfLvdvrwMw4lIgfoEz7G/ycxa/LAUqixodtttt+3Gxsa0Hcdunp4pvU2Ep92pxaxF9CYqLjMDloh+DgD7pZ7opox3IuJhRbbSmM6uyoKmu9scJSLaksOXLmDmM32FqyznUar1kenoa1mn0zlk1apVa3s5x5133nnboaGhlYhoDSKdaPurnHOmyqx5z7HSoMnhNU1VfIyZ35C348rU55OcVfZrWRiGz0FE/QO4la/vROSjzjlLy0nfobYoV3nQ5PCapjFV/xHH8asL8WAPlepf6q222uoGbQ3vO2wZr2VE9M/6x8vXZpUTkaudc/odU3qrlcqDJqfXNFXzdUQ8saz7iCwPjMouWbJkl8HBwW9kAQwArBobG1vWy9cyIjoHALIead+QJMlzyk5ZGF/DvgCNGktEWrxbi3h7k4j8bGBg4MRWq7XaW0kJgmEYNoIguDIjYNYHQXBQq9W6sRdT0BypOXPmnC8ix2Yc78EgCJ7aarVM7dwzjtnfr2cTrY+i6FKt05vRIVoDTA8ILsmopyfiURSdrrkixrplj7JNRJY5567phdFhGL4IEbXwyc5Zx+t0OotWrlx5e1Y9ecr3zU4zPmki0iopz8vqhG49rQvjOP5eVl1FyHcLS5xu6csylR361945p1EWhVMYhucj4ttyGqiSpbr6DjTdVzUtiG3Nu5l0HTV+SXce59yanBY6k5ooivYVEQWLtajEVOP25OY8iqLjkiR5k6Wg/TSOKrSIeZZF6kvQdIGjYezWmgJT+Urfl7VA3gVZnJlFttls7tDpdM5ARAVMXvR1Zn5xXsom00NEWkVIo9KttdW2ZFZlAaNG9y1ousDR7gF5lqj9PQBcKyLXOue+VeTDprq7vVf0YRv/sTQu2qJ5RdSGI6KnTvQ3Ir5aRPKuKVBpwPQ9aLrA0aSrIuoO36EAAoArmVnHyIUOPvjgOffee6+C5J9E5EUAMD8XxROUIOLX4jjO6/VOwb23iJyaw0nYdFOtPGBmBGh0EmEYmvvcTLd6m/1ei7Rrj5QYEW9PkuR2EfnDdPcGejG7fv36RQMDA4uSJFmEiNpsVS/o5hjHT80uIpc6596YWmAaxjAM90NEjRUrkjR487n90rm7r1/PJq4iEX0AAHpdtPteANDj0NsVTGqPiCwCgPGf7Yp80ibRnetH/y677LJw7ty52k3b0nbQOuVrO53O8WWkJ1gNHeefMaDp7jjvRsTZmLn51yRJTs07zD+KoveLSJEBrxcODQ2dPTIyor1X+4ZmFGi6wDmue7GW5wFBlRdUv7u0m7G1U/a0cyKib+i317SM2RguHhwcPG/58uX6CtwXNONAo17Xb4kNGzZcjogv6ItV8Dey0JwhItK7Kz0xK5oSRHzXQw899JFbb731/qIHy6p/RoJm3ClhGJ6GiD0pVZp1IYzyvxSRdxVdCyGKojs9Cqgbp7IJ+90icv5DDz308bVr167LoqhI2RkNmnHHEdHyDBmgRfrfrFvb442Ojr6zFzXefAsPmif1aIFVInKJc+4TVUgF2Ny8GQuaRqMRBkFwpIi8IMfQjhyeh1xU/FBE3umcs/bSNA3eaDT2DoKgJ1HRUximVTM1uPYrJsMLZp5RoNlhhx22WrBgwVGIqB+v+lPYfUjB65JKvaYta/hPkiTfKOrIlojeog9uKoOKY/pCkiTva7fbrrgh0mueEaDptsnTfiYa0vHk9NOfUZyfQcRvxHH83bxnFUXR8SJyWd56jfru01PROI7fb5TLnb2vQTMOFm0A1OMP1twXIkeFX0XES+M4vj5HnZo5uigIgoMR8SBE1Dz/ltbdRsTFIvJMANCfoTzHnELXDwHgrCKO2NPa3pegqcGSanm1LfglvQpNWbx48TZDQ0OHJEnyXAA4xqOIfapJdZnu6wJHDwp6Tn0HGiJ6KyKeVu8sqZ4VPba9tNPpXNrL7EdNc0iSRIGjqc57pLLUj+kzg4ODZ/X6YrRvQBNF0fNE5F8A4EA//85qqT8j4gfiOP5Qr72gqc8A8EpEPLKgsW9JkuSUdrtddFDpI+ZXHjT6Lj1nzhwFi1aXrymDBzTHptPpvKeXD9i4uUSk6Rsn+Ba2n2baGkVwcq+OpisNmm6rdAXMDhmelUyiIqJ9HH+PiPci4j1Jkui/Gt18bxAE946NjW38d2ho6N7777+/s/XWWy/odDrbBkGwIEmSBUEQbKv/IuK2IqL/Lu5etFImw/yFExE5T0QUPOv91fhJNhqN/RHxBE1g89MwtRQinhzHsaavF0qVBE2j0ZgfBMGHu3+ZCnXABOUbEJFFhLvd2EY2bNgwsnr16geKMECT0e65557dRERrVe+KiPqv/uSelDaF/XppeR4za6GSnlO3i7PeAem3T550ZtFp65UDTbPZ3CNJEu2Gtn+enpxE1ygAXAUAPw2CgEdHR1cUBRDLPPQvcRAEGmh6VB4lkKYbu/uto7t5KRSGoYLmTETMs8tDoYGslQJNGIbHIqLuMNsXuII/15rC+tNqtW4rcJzMqrthLHqEezgAaIe4QggRtR7C6XEc31rIANMoHR4e3np0dFQTCDV3Z+ucbCgMOJUBTcHBgbeKyFXagaCMj+A8HoJxABV1kavfbkEQKHByjyhIO/9Go7F7EAQKnLxe2QoBTiVAU2CGoD4An1u3bt1Va9as0dexvqeiL3YR8c1lHE1PXJgoijTCQ8Nl8kgXzx04pYOGiLRJad7Hyb/oFpjoSVXJMpBYJHjKagA70Y9EtKcCBxEPzcG/uQKnVNAQkYa2PyMHp4yr0GoxGndV+LFjjjZnUlUgeK5i5qJTnaebe0BEWhM6c8GUIAj2zav4e2mgISI9ys3reFUrwXz0vvvuu/SOO+7QypuzjrRK/8DAwNsB4LU5Tv5aZtaDiFJJT9i6dR92ymjIjsysBfAzUSmgISLJZPUEYX0NQ0S9b/hzXjr7WU+3cLqCJ6+ySz9l5oPL9on255kzZ47uOt67HyLeFMexvtlkagzVc9DkCBj9i6F1vr5Q9oJWbfzh4eEFo6OjChy9PMyDfsXMe+ehKKuOMAyvylIwBRH/PY5jzb3ypp6CJi/AiMjXkiQ5e+XKlb/znvksEOwWJ9dOZHkEuf6CmYu+cE61KlEUfU9Esrw2ZjoY6BlocgKMxkqdw8yZOqKlWpkZxERE2u9S+15mojL6dU5lMBH9GAAO8Z1QEASHtVotrR5qpp6Ahog0lz3rR9yvkyR5c7vd/pl5lrUARFH0Ni2PlNUViPjGOI4vzaonD/mMp6/ax/MQn6DVwkEThuF3EXFZRidduW7dulPWrFnTN1UYM863EPEoipaJyJcBYEGWAUTkaOfc17LoyEuWiH7tG2Kk90DOOXPXtkJBQ0T6GqUNZr3Jd2LeA84CQSLS/P4oy1QR8VlxHGu+fulERD/N8N12BDP/p2UShYGGiF4DAJ+xGDMJ75v6paFsxnn2XJyILgaALC05NKdI22PkXkPaxxlE5Nvg6+ahoaFDR0ZGUpfDLQQ0zWZznyRJbsjSaQ0RXxLHsfaEqakgD+QQ89fasGHDstWrV/+pIBNTq202m09OksQrSltE3u2ce0fawXIHzVOe8pQFW2+9tSY4LUlrxOZ8WU42fMecrXJE9FEAeH2G+WunuJdmkM9NlIjUDp94w7s7nc7T0xYfyR00WS+fkiQ5Pu8+K7mtygxVRESfA4BX+E7P+pfad5w0cr5d8SzfzrmCJut2LyLnOufOS+OcmidfD2TtRSMiL3POfSlfq+zaiEj7EmkgsLU/0f1jY2N7rVq1SmtCbJFyA00Yhkci4tXTDbiF32e6pc0wbi3a9QAR/QAADvN0yH8HQbCs1Wrd7Cmfm1i3IMslVoXaliWO4zOmk8sFNN3W3tf5npcDQA2Y6VaqR78nIi0y3vAc7vqhoaFlIyMjD3vK5yZGRD5dv9cFQfD0VqulxVWmpFxAk+W1LO9uxLl5fZYq6lbJeQgA5vq4oOxCHeM2E5G2nTfdv3RlP8bMbygUNN2gQO376EPfZ2aNFsgUqu0zcC0ztQeazSYlSRL7+khE9i+6d04a24hIoxa0wqeFtJXhXnEca2+cSSnTTtP9q6SvZftZrOryauLYMmZe6SFbixTsgTAMX4yIXvdkInK1c05LUJVKzWbzmUmSmKMWpjtJywSaMAzfhYj/6uMZRDwqjuMsBwc+w9YyBg+EYfh2RPw3g8hE1hOYueyeNhCG4RcR8TjjHNYMDQ01pmrV7g2aRqOxVxAENxmN2ciuhcydcx/wka1leusBIvo8ALzcY9TV69ev3/+3v/3tPR6yuYl0iy+aI+NF5Fjn3KQXpd6gyXAh9l1m1o+0mvrAA41GY8cgCH4CAE+xmluhQwGNgdRYyNSkiY7OuaMnE/ACTRRFh4mInulbSYtvH1iFj0Sr4bOZP4qil4mIV1q5iOzlnNPw/dJIy0EBgNUGPRAI4zhetbnhXqDxDZXRAhhxHJ9bmvfqgb09QETadexkDwWfZWbTX3mPMaYVIaKvA8ALp2XclEGzhN+bGTTapAcRfRKQfnPfffcdOFtLLBkXq3LsRPR4ANAUY/PFZ5IkB5adcRtF0XEi8kWjY29m5uHMoMmQm/1CZv6m0eiavUIe8D2GRsQvx3FsPcHKdeaLFi2aN3/+/La1+7eILHPOXTPRGNPrmW9r7CqUOc11BWaxMiLSNihv8nDBs5nZ5zvYY6jJRXwyiUXkfc65s7xB45mPfWen09kvba5Cbh6qFRXige5rml41WAulfJOZrd8Uuc6BiLRQoEZAW+hGZt7XCzTd0qBalMFEiHhWHMdaGbGmGeIBItIihBd4TMecj+8xxhZFoij6kYiYiqonSbJTu93WdOqNlPr1jIi0zdzzjJNYuWHDhr2r0GHMaHfNvgUPdL8PdLexlr4tvah6GIanaQqAcYE3iW5IBZowDA9FRHNhNRF5g3NOC9XVNMM8EIbha7XEq3VaZVex8bmz2fwgIxVooii6XEReZXTQo94FjfI1e8U94Fk66QpmPrbMqRGRXlhql+20dBczPzH161kURZGIrACAIO0IXb5X1MXJjR7rM/Zuh4IrrWYnSXJAmW0ciejT1s7h2oXbOXdLqm8aItLASmtTHc2TeY7VmTV//3mAiL6UgqXHAAAHMklEQVTdbaRrMb7UKAEfsIvIic45BduWDwJ22WWXhXPnztXUT70NTk0icqRzTp1Z0wz3QIYLzz23lOhVpNu66fkPGsf4ODNvLHW1xW8aIjoBADaiKy2JyE3OuX3S8td8/e8BItLQe1MbjukSvYr2ChFp5LalWdUj3+jTgUb7yx9hmUAVugNb7K15s3vA8yTtdwsXLmxcd911Y9ktsGsIw/B9iPgvBslRZp63xZ2GiJYCgMbqWOi+gYEBuuWWW+60CNW8/e2Bbtr7cgAg40xeyszmgwTjGJOyR1F0lIiYYiFFJHTOtafcaXz6mdQxZnksZ3/q8IwSKK2kbbcrtqkGNSK+PI7jL04JGiL6JQCYvk2SJDms3W6bL0H78zGprZ7oge6hke42Oxg8M9bpdBpltYG0NhsbD96cFDRRFB0kIlplxkKV6AJsMbjmzdcDPu07EPFtcRy/P19L0mkjoq8AwEvScQOMRwZMCpowDD+EiKenVbbx46hCbeUsdte8+Xmg22ntuxaNZZ62enyC3MDM+00KGiLSWmSWVhnrOp3Okjr83/K4zExeItKO2ztbZjfxtt0il5XXWvtARP7knPuHR4HGszTTV5k59TaXdbK1fHU94POKBgBvYeYP9npWURQdKCLaejA1LVy4cPBRoCEiDZmx1iR7JTNrfayaZrkHfF7REPGaOI6zNjM2e96ne9rY2NiTJwON1mV+tsGCPw8NDS229Cw06K5Z+9ADHq9oY0mSPHViolcvpt29X9pgGUvrVG8CmiVLljx2zpw51oqIn2bmEy0D17wz2wOer2illLGNouhOEXmSYUVeuglofMoz1cGZBnfPElaf2/ayKtZEUXSjiOyddmk0TGxz0HwWEV+dVsH4aUJa/ppvdnhgeHh469HRUQ2l2s4w4z8ws7VYh0H95KxRFH1VRF6cVpGIfGgT0BCRvpo91qCgEi0V0tpb8/XOA0SkcV2mdhtBEAz3uv2gx53klY+AptFohEEQbLFt2iQufzszv6d3S1GP1C8e8Ol7WUZNCSJ6h7avTOtXEfneI6AJw/BERPxUWuEu33OYWXsb1lR7YBMPdLssP1L2KKV7Ps/Mr0zJmwubFTQA8PNHQENE2oDneIslIvJY59z/WGRq3tnjgTAMb0bE3Q0zXs3MlkgUg+rJWT1A05oIGmuFjhYz75rZ6lrBjPWAxwMJg4OD2y9fvvzuXjnFw8bbNoImDMO/R8R7jYbW9zNGh802ds+j5+fHcWwK+sziV49Gy1/fCBoiOhwATIUwEPF1cRx/MovBtezM9oBPmIqInOGcs1bA9HZktzb1XWkViMhJ46DRxjWbVEafTkmSJHu32+1fTcdX/352e4CI7geAbQ1e+CQzv87An5k1DMNPIuJJ0ylCRDd37ty9xkFjrcwBQ0NDc6fqfjvd4PXvZ48HwjC8HhEPMMz4OmY+xMCfCysRSQpF+zHzDeOgWWtsncDMHKUYpGaZ5R7wiEP7L2a2xILl5mEi+jAAnLq5QkTUWgJnan0A/Z2CJiCijnHknp+nG+2r2SviAZ/aeQ8//PB2t956q77W9Zy61Tc1Fm0YEVeIyM0i8p2JVytIRE8FgDUW63r9sWaxreatlgeazeY+SZJokZbUVPXvZfRsb34IM1sLb6R2Ws04czyw6667/kOn07nDOKNjmFmLXlSS0Cd8RrPXVq1apd9BNdUemNYD3dd/S9eJM5nZp9PatLbkwaCvZ+bjZmZO1dcmDwNrHf3vgTAMb0PERWlnIiIfdc6dkpa/13wKGu2jeUzagUVkrXPuyWn5a77aAx7Hzt9m5iOr6jkFjVbjONBgYCnn6Ab7ataKeYCIvgAALzOYVem4RgWN3uo/Pe2ERORy55wpGjqt7ppvZnogDMPztZKmYXb3M7Ml69OgOjurgqYFAJaLyncy87uyD11rmC0e8KhkCUmSDLXb7fVV9JGCxloRsZTCblV0Xm1TOg8Q0RsB4OJ03P/PhYh/H8fxXywyveJV0PzRUum9jm7u1dLMnHGI6DUA8BnLjIIg+MdWq2W937EM4c2roDEV0xjv0eE9Yi046zwQhuExWqLJMvEgCJa0Wq3VFple8SpotGHnY9IOiIhHxXF8dVr+mq/2QBiGRyCitqJMTWVUpklrnIJGgzVT39YGQXBYq9WqGzel9XDNp5nBhyKi6ZkJguDAVqulDXArRxp7xtpL0GDZjsys30E11R5I5QHP+LPKPmcae5a6qmYdDZDqGamZJvEAEWkkvUbUT0tVf850pzlJRNLm+l/IzNqKo6baAyYPGJPR3svM55gG6CHzeObmbzTpZrpx60DN6TxU/35LHkh5J/gLZt6/yp6cWPdM+7kfPZmxmu7Z6XRe2G63b6ryZGrbqu8BIpqy/5EWrojjmKo+i80LoL8CEZclSaKpntsDgCaarajDZqq+jP1lX7dAnz5jwyKSAIBmdrp+ec7+D+YL077/xu1rAAAAAElFTkSuQmCC;fontSize=18;rounded=0;labelBackgroundColor=none;strokeColor=#f47668;" parent="1" vertex="1">
          <mxGeometry x="-1" y="222" width="61.5" height="60" as="geometry" />
        </mxCell>
        <mxCell id="4pmCsLbF5WX71sMFGeFw-5" value="" style="shape=image;verticalLabelPosition=bottom;verticalAlign=top;imageAspect=0;aspect=fixed;image=data:image/png,iVBORw0KGgoAAAANSUhEUgAAAaUAAAB3CAMAAACUja8MAAABUFBMVEX///9pZWZmYmNjX2BguTJhXF1bVldeWVphXV6Gg4T29vbKyclwbG17eHn8/PzU09RTpjNQojPd3d1WqjJYrjKmpKVGkzPs7OxLmzNJlzNBizNDjzOin6BeuC+zsrLk8Pm41/DY6ffr9PvG3/OmzexZtyUuhBw1hCq/vr7d7Pi72fGt0e6TwuiTkZHl5ORDltjX5dWMsYmBfn+KveY7hDRvruF+tuT0+fK5uLhbo90oeSO4zLeYlpYvjtVRndt2wVSOvIOBxWNOswnr9ecvihEAbQC/3rSrxamd0YdBoQ5qX2lSS0yDh46gqK9dsDdDnR6Ju3u+zNhvqGNcl1UVh9NqrlTR2+SgxpitusfZ5djS6clsnmi/17pXm0guhxbG47pllmOQx3xZokTJ2cmq15iSuouQk4xkl0tobWJkjlBfgFOivqBcdlVPfUg9ejeHpYX9cv+1AAAUBklEQVR4nO1d+UPbRtq2JTSSJVsKDl4nqTGHOWSwTUvClc+QLRBaklLabbvt9ki73Xa3e///v32aGUlz6J2RZUzoFj0/JUiWRvNo3nneY0aVSokSJe4M7ijwwm631ep2Qy8Y+XfdnhISRmFn10a27TgmgWPZNnJqLW901y0rQdEOa5btmEY1A8N0kDkM23fdwnuPdreOHIAgjioLNQ5Lou4QYQNBYwggate767beU7gtWz+KBKJss1vKibcOd4zMSSmicFDLvetW3y/4raIcYZioe9cNv08IrSk4IuPJLOent4RRw56OIwx7t9R7bwNdBGoGwzQtGyHLiOAgZFsK9We8bt71E/z24TYsiCEL1cddb9SOdZzfbnrdYRUBltG+Wl2920f47SOwMyPEMFG9FYDyzfU6kQQXzrY6q0tLq6Uov010UYYju97VButGLYNj1hr3+/2l1ZKmW8RQlg0mGk4wywS1RLdbH62sRCxFNJWu021h15E56kwo2NpDIjnMiKSSpttFQ5xhDDQu0NOYJ/OjXq9X0nSb8CWS7EbB3FGzjknqxaNptaTpNiCSZNhh4Sv4y1s9fjCVEmLm2BVIsnaLDwR/eXmrpOlWMRSEA2oVv4K/vb1MB1NJ0y2hy0twAwXFrxCRtM0NpnhqKqMQM0TAO7OGOUW81F9bE2mKB9O4LF+ZFVxhJFWn0GYRSZSmLYGmlm1VZ9/ce4oGF7sz6tPMJWsDStMym5r6/Ssc4jOHM2/u/UTX4kfSNCQNIqxJNu8qjpejMi84C7S5Sckwp3FFB08pSxxNV2aq7K1S6M0AvL1D00z2g6dPBxxN0dS0FLxm1yxt3gwQctJBYZ0OLnQXGOw/FWnqR3885K9aJm9vDM6dtRTO7O8v31X/frC/z9O0tkL/PGSxDKM++1bfM7QYS0YDPuXgwfUnyt8P9ihLdGoa9NIDnLifIiZYgofLSQcEe7MHHz9U0zTYwywlg6nHCYVmemXTtmbf8HuFFjNM1iF4xsHCwsMH8wqaBkd7KU1Pl0Ux1zEpRcb40zKedyNwQ0kxexwsEpbmz/8AHCQkEZb297czGt4wTLt+9Wl/aWmpjOfdBJxDCyuxs/WYpUdvsjQNTo4oTXt7awAPXvXqUxIrmqCoKO94jhvnNn8tOtIf4fWS3dCb4VpJTojVoOMRSXMxS483ZJrWIpIIS3sDgCO/39tKYkVLecHxGrJ1IYrAQbu6hw7xMkWtq9eqZTFshU3wqoeKk/XPEGHUbSDbcuhiSdRQF1+1x8AdcMEjdLLHvBrQn8UkpSz9buMz4eDazhHF06XMD1dXtte2aRRiEpZa0ZB+rY7EY7tsjdU/J0LFcDQ3GNoGANOxUS37dnQRdC6u7B1qUzpeXVzthQsZYXXrWyZ4C8e2xtl3oZZe1IACBIQkxtI7mzxNa8cneCyd7Pfln632cPA1SQrGLGnHPw5/2OoeaNp6p4s+hqPW+36mzJB1peXIqkm9aMuwG8oB5VWzBafR1Q3IRnjqQvyIWakjOO0ADaWzU0wSx9ITjqbt452TCHsr0o+WlrEqpwHyeCytkISgsgsrN2VplDyG8gxXzVIEqy4OYzJXS+952u2KNLZbi2+BByhGWpttA8UJHlDlzZhF4ogJU48Wcmi/piTxLEU0xWNi+XgnwpHEUX+biHLi4LKxROSDdjDdjKVx3CHqqY2yZDo8TAslax0NUTlZpENE1K1kebENWZ1mTIqJGi2vORqNgrBTjUtJDTsz/ghLhtQeO5rS6C1MIXu0m74iFvCALyhJAkvPnv8fObYVkXR80hPOXxkQVZ6EIdaSMojbZolQgN92VewkPgVl/joKh3FPCqYEd6GdGQBtj1aGVu3sUjqPDiTL6PKjctRBiuQNZikr19zm4S69Bf+wnB2wgUd7X81SRJLIkd97SlU5G0ucySMTk05L34gl7JhbXt3QhHUpS9B74tN1QAZvLQlLkJZp0/UomRgNJcmwM2EBd4xAmmCWyC2GdNiPhXMpTEhAvcAW7zTC5eXl9fX5+fmbyOK9xCz1jo93tri2LO/t7CSuk8ASLx90E9NNWPLxTGwS6w0/eEXHUtQvVUyTw003SpbiGLLZkZpHOtZpQO9hk6o+6f1Rs5RQzn7QSb0lsIf8ytziesVPUXl3Y/M9fKD3+c5yetbq9tExFhJHR2wspRMTP5Z0Ju8mLB1G9Dhd2req9JiOpYpL+5Ed1bBUwUO2KoYladWIylNw66SXRQuqY4mWCrGj9XRasuEHwCxxiFnqfb6d/GVp7eSYyIiTk8TDhcbSym2yZMbt72qKLLQs0W7hZmYdSwE5KLwMZHZ31O4cybIau/yftCzR2CpyuaZTFaL4AcjSyiD+b38QU8SztJ+VD7fLUmjFJogyAXeuniXSzxzBOpYqhFG+qSSLaiq7PLJJxKQKAlTPksu/NUHqWimi4QlLFw8vvzirJCzRZ10Z7KQUyYNJ0A8RTX9c+WOEAF5OSHADlohqIF2KDbip8Gb0LBGPhF1fyxK+n6CIqXelU7DUnzO5v+hZIl568iSHqbeUFfQUlKWLy4cPHlwfpBYvsnn7x58fc4ikQ8QO9mUJLYmo83HTPWTHeK2O1E3PEn7V4rgJqbKBbXcOS/j6nMzVstSQWOriXswpBibn8KGRHJaw8U6CQeNUPKjaT1n6mOSXvkxZWiFcYDsWMZFbcsQqlEz1lh3Ts9TgBDh+BS3wJjkstW2BXy1L8lttamaMFFQAsP/nsMTr1dSnVU7MlKVT4i/9nhtLhZDaVVDuU0zNEhbBqTNLFDGYFp4dS/RK7N0kEbnc8htiUrkHLMBS6i2BkVYMkKWiGb20kEyUOZlzpmKpJvwQXwaMuU5i8Ri9OpawWOEfZKiNeQiX5NysCSxe/E6zOLFiylWw5Eez0s7R3v5gbXkrMnq5ua4hi1Qqz5mWJWxOuQM01AycN4F64Lpax1JVkmv43ExQPQs6u7CGTqAeqOlmE4Yy5K+0eL39z3npsI8pi1QDmJJllRWZQFqKaVnCD29xrZf7MEEOSw1DeFVzYg98S8goVMh/HsTNYudNoMTj7hgxIQ6Lrzj2oJiXenu8P5skbSMdPhhsY8YileeSbjlEFt7p1TAMpJQaU7JEHodP/hF7BNifHK/WFmcNJUsuWcTPkxJaUgsUcEXHWc8SiQnFkrOZsqQQ4kkcL462cnE8Cn9rj8SGTlKOWGVeWucauUuffvXV1dX4o1rdUr5zOSyNFCzhYSoqR8VcrmXJNyQFpWBp1MJpPjHLgVuQq/AwiM1Km5ofIUqGNnNqbTj6pYmJpw+4vIctHvNnWf1kHCHaShcz6eKtmCVj2FJhbIAs+ZaotyrKXtOx5JJAGe/xkKm+1RXQqtGtfKSM4dDQTOs8yFSTygcdS3TFXxL3YxHx6VmqkID4yUk6lLha5MzSQE2MiIa6TBXklz3GoZWJT1M6Ms+jYckjyT2Hl7mkY6A2VKtyHUPD0PqBDGOT19Iallo0JO5xZ86ApQoOi+8dHYEsbYksKZ+BX/ahAMCSAczcYxNyzOAsIN6Eu04siinMZep0tyHXshDtny/x4kGey9Ko5RCtxfbsDPJYenGaqXt4svESYKlCiOJZEgweW2WrfIapWMK6O/OoI8nrpHCpqZfsaM2Is+S2eBVNUYJh2cImwjdgqVqX27Nr0f3RDMSuGOSph4ODgzmxhujJxsGBUqctbe8naYvpWHJsFRyQJTg7W4NmirjuATRiVVNebEAtnlCU4NgoqZIwealfyOKxMe5pjKph17mHytV4EdalsbSh92EjovYVLC3lsuSE7RGMtucALJE4a1Z1N8VoD4W6hsi0rZb8UKDG89vNcEjelypic+HQyEyNMMSXR1lDhEv4BKOa6y9FLTuVWTrIa01/GY8mWDzoWSrqL+EwJOTB4iHmSK+3kqV6B7irxqsNDeLLpLxg10YT+WLAN2OmUcWS0ehKI4a1XGlYzzIs/WmCBvWXaT49Ix5myhJN2gAnkx4wxb/RZ7U4OGRUOCAX2pg42WQmlWAkjKqOqYgNYE9IK70cvj1ExwIOeX4c790MS3/JbxBGf4tmaqUtOpTnT8ESsTVgaIsQIh4BlHhIpyrIhGtZqtRIroJrmWbGSEFEABM1gMajdS9Z3ceioCov+Gt5XtqEFR6E/ta2zNIsc7XtuLgqC5o7FUcZ5C+RAChorfQskZql1NTaurecgVhGNlIgJU7z7hklworEVaW732dY+iC3PQz+Uo+VIOvrJouzxOqfYIgzFujV0nIgoIf1LNHMfSLXSMRfHeznL8lpQYiltlThxd2NQhUGvThdl1gqmAWMiOK2jpohS/rC74yJB1miFVrAsvwcljw+pEuSJUr5lSCUorSgV0sL8SyJi5C5taoOOvsp4ukGLOF7X630c7dhK8xSl1hxXURJeCnhCBGNmGXzDjkskbkoHT6wLyehKhlXOPbQcTKvF+8w6fyyi7l1jqVvcpqTxdhGu1/1V/W7sBVmiViQcQdGiwRv+U5QxPFaFtjFhViilSd6x7YrJdRVEaIGUNnHkrWqlPD3xD36+v3Lh0mE6DP4RA0MElb5KFz1Z8hSCLm5DFRRcXEvVbSVbLCZKbXMYYnYoPTmPi0d1y1EJE6D0McKllwLsMEseqaYmOZOP8R1eJWzTy6vCUvPNjWNUbeQEKVbR1eUpaw+EIGFAR9zVbHk0zCe5C/msDQURyqpmtRtskWrJgUeVdHW2AYLlLNctwM/8fri+un7X+N/HXz56Byz9FzZFgW6rBZdE5QsyJIn2BwAnpR5UmYuRpCw0rNEtBhv4mjapaFPy4haUpm56GYpZ/FWhceEJd7i6cd0F6Jvv3uz+WSj6JZfrBZdVx1QkKV6biSabEHPOkadX6K7MDnCY+lZasgJE6oVzTrcNbSaX5pT1PmlWta55dY+g7c4+/B0fXFucf3ySzJBvfvNxsvcQJ6IEaeYNacVYymAAqoiSN0uO0WTBRxmO1HLUi1bJkntlGFBDxDQFKa0oZ2aJT/r3LIiLOWbeTF3uriwcH35CYngHbw3SSCPAzOqWge9GEtgckIECRAws6TLqFPnlo9ra1jyDBOwC/FSQDSUfxSvGTPkig9Nrja2wZIgjE0eJJjOqMR7cboQKfHr774Fr6oH24pKG+wqxBKc6JNAXo805qpdZSamsCuqFZt+2+sYtMOyKzBjjSRuNRDE60Gz2xXr6h5Coe6hIiywh/ro+0Ti/fnyev7RozfvfFB0O5CQ2zBMd14hloaT7AZLS6tC/n+qGiJPFlaEikxOEqXLzlE2yNt0kpXOdq0bBkHgdWt2vLOAlV0kqK0hogHGuvQHennAZbpYZxJv/jpS4hsb7xWbl9ikpE9oFmGpDRegyBjz9Y36eryWFD/QLfPHS5whq+DXku/0GXjfFCv9orkBfXdUX49Xl5aQNjn9kO2kD095iffjOVbihUJE/NYs2vrPIiyRHG1+4m3EE+Pn17Zyh6vqKgzDhhd14HbVgV05TFSDHjyntpXIce4wE8rAYEok3vpPVOL94c1mMZZYq3MqC7uoqql8jbSAUbWTd6v92shbL0RQsyJ1nPynYVZNNbOuZVQtdjhEYHTQsZAz1MVVvV3xk/OmhRSb3rvRwENqVyKQDrOIK+zLY4k3t7Bw+QnZEvTgvZc/aFopg9swTDNQCDpmXacuRg0uuuVVjUmqdvyhxT7K6tacmkZvtHetITfSAig4GE03ufXg7XBoItu2LCuax+pjTzl6g7pWpHp1cYbg0jSmfC65B5Z4Cw8eXH9BJJ4/eRpwgr33fpNwm4HnecFoll+fYss2s7UwnMR7MP/o/HFBicdlGfOGUokccINJzhOeMol3jaOtxSQeJx3u01C6HfDbiYsrrQ8kiff4nSebGz9Mel1h295yKN0UTOZJUT5flnjnm0+eTRzIa0ws8EpMgCb30kslLP7FHN7HcPHyz0Tinf28sfl8wkDemNtMfoK1ciXyMOSnJlmORxIPb697GUu8D55PVpHHf0DBmeLzdSVk+PwnATkFcZFKvIWH8/PXj6jEm8jiefxnaErpMBPwfcpFyH465SQejra++XnCSUn4gF35LZIZYcyXIKarmT5cjyTei+/Jv7/9kUrxbyaZlgSSlHGvEkVR58NPSSaIrAXkJR4u9XqZH8gThuZECxJKTAT+c2aphEj2bY0kHp2gfn6z+exZbkXeoXCtqb6NVgJGINJEVNliuq524fILMkH5H2w+z6vIG4tXKj+EOkt0hc61a368EDCuE39w/eiCSLy//KC9jNsQvyFdfrlxtugI28WbZlA55Vian58/P8+XeJ6YCNOkUEpMh6GYSEZ/XRR3Enj0+PEbvcRzh+JKCLt0Z2cPiSbj1d/WFwWWfvfO5sZn6gTToW2WJN0+xtI3Ml798iP3zZh4W46XiuHkVaWiDsUHIUrcFB157darX77DH2DiWYIDeV6mNAMqnSkxExzKNFVfVf/+cBHH8TQstbumJZfPlOruFhFkq5Vevfrl7/PRaEpYkpbWuuEuyqxxNczST7pNtOtAzWBE1D/+9piuYHr+T3ayG7QaKDOMqlUL+ORQiZkiMzklTFV/+dc//v3v//zXbbdHzSBs1arINoECQ7Cas8SMEZjaVfomQrjkzIEIwnC0lXUlZoYxUtfg5kD1RbYSs0ezof68oJ6j3bLG4S0iclILjyfDlj8PWeK2EUJf9tRzVPpIdwCvkfWEVDBRrRxHd4RRx7InIMq0zVY5H90lgrEFekWpobNsA9qwscRbRhOvEY38I4krwzAt5NQOy2DQrwYjr1WrI8QtBkb1YdcrGfoVwm03mwFGs11G6kqUKPG/gv8Hh5dxj9c7bL4AAAAASUVORK5CYII=;fontSize=18;rounded=0;labelBackgroundColor=none;strokeColor=#f47668;" parent="1" vertex="1">
          <mxGeometry x="813" y="89.84" width="178" height="50.31" as="geometry" />
        </mxCell>
        <mxCell id="4pmCsLbF5WX71sMFGeFw-18" style="edgeStyle=orthogonalEdgeStyle;rounded=0;orthogonalLoop=1;jettySize=auto;html=1;exitX=1;exitY=0.5;exitDx=0;exitDy=0;strokeWidth=2;fontSize=13;" parent="1" source="4pmCsLbF5WX71sMFGeFw-7" target="4pmCsLbF5WX71sMFGeFw-9" edge="1">
          <mxGeometry relative="1" as="geometry" />
        </mxCell>
        <mxCell id="4pmCsLbF5WX71sMFGeFw-7" value="配置中心" style="rounded=0;whiteSpace=wrap;html=1;" parent="1" vertex="1">
          <mxGeometry x="111" y="28" width="90" height="32" as="geometry" />
        </mxCell>
        <mxCell id="4pmCsLbF5WX71sMFGeFw-17" style="edgeStyle=orthogonalEdgeStyle;rounded=0;orthogonalLoop=1;jettySize=auto;html=1;exitX=0;exitY=0.5;exitDx=0;exitDy=0;entryX=1;entryY=0.5;entryDx=0;entryDy=0;strokeWidth=2;fontSize=13;" parent="1" source="4pmCsLbF5WX71sMFGeFw-8" target="4pmCsLbF5WX71sMFGeFw-3" edge="1">
          <mxGeometry relative="1" as="geometry" />
        </mxCell>
        <mxCell id="4pmCsLbF5WX71sMFGeFw-19" style="edgeStyle=orthogonalEdgeStyle;rounded=0;orthogonalLoop=1;jettySize=auto;html=1;exitX=1;exitY=0.5;exitDx=0;exitDy=0;strokeWidth=2;fontSize=13;" parent="1" source="4pmCsLbF5WX71sMFGeFw-8" target="4pmCsLbF5WX71sMFGeFw-9" edge="1">
          <mxGeometry relative="1" as="geometry" />
        </mxCell>
        <mxCell id="4pmCsLbF5WX71sMFGeFw-8" value="工作空间" style="rounded=0;whiteSpace=wrap;html=1;" parent="1" vertex="1">
          <mxGeometry x="109" y="100" width="90" height="30" as="geometry" />
        </mxCell>
        <mxCell id="4pmCsLbF5WX71sMFGeFw-20" style="edgeStyle=orthogonalEdgeStyle;rounded=0;orthogonalLoop=1;jettySize=auto;html=1;exitX=1;exitY=0.5;exitDx=0;exitDy=0;strokeWidth=2;fontSize=13;" parent="1" source="4pmCsLbF5WX71sMFGeFw-9" target="4pmCsLbF5WX71sMFGeFw-10" edge="1">
          <mxGeometry relative="1" as="geometry" />
        </mxCell>
        <mxCell id="4pmCsLbF5WX71sMFGeFw-27" style="edgeStyle=orthogonalEdgeStyle;rounded=0;orthogonalLoop=1;jettySize=auto;html=1;exitX=0.5;exitY=1;exitDx=0;exitDy=0;entryX=0;entryY=0.5;entryDx=0;entryDy=0;strokeWidth=2;fontSize=13;" parent="1" source="4pmCsLbF5WX71sMFGeFw-9" target="4pmCsLbF5WX71sMFGeFw-12" edge="1">
          <mxGeometry relative="1" as="geometry" />
        </mxCell>
        <mxCell id="4pmCsLbF5WX71sMFGeFw-9" value="Build" style="rounded=0;whiteSpace=wrap;html=1;" parent="1" vertex="1">
          <mxGeometry x="246" y="100" width="90" height="30" as="geometry" />
        </mxCell>
        <mxCell id="4pmCsLbF5WX71sMFGeFw-21" style="edgeStyle=orthogonalEdgeStyle;rounded=0;orthogonalLoop=1;jettySize=auto;html=1;exitX=1;exitY=0.5;exitDx=0;exitDy=0;entryX=0;entryY=0.5;entryDx=0;entryDy=0;strokeWidth=2;fontSize=13;" parent="1" source="4pmCsLbF5WX71sMFGeFw-10" target="4pmCsLbF5WX71sMFGeFw-11" edge="1">
          <mxGeometry relative="1" as="geometry" />
        </mxCell>
        <mxCell id="4pmCsLbF5WX71sMFGeFw-10" value="Test" style="rounded=0;whiteSpace=wrap;html=1;" parent="1" vertex="1">
          <mxGeometry x="386" y="100" width="90" height="30" as="geometry" />
        </mxCell>
        <mxCell id="4pmCsLbF5WX71sMFGeFw-23" style="edgeStyle=orthogonalEdgeStyle;rounded=0;orthogonalLoop=1;jettySize=auto;html=1;exitX=1;exitY=0.5;exitDx=0;exitDy=0;entryX=0;entryY=0.5;entryDx=0;entryDy=0;strokeWidth=2;fontSize=13;" parent="1" source="4pmCsLbF5WX71sMFGeFw-11" target="4pmCsLbF5WX71sMFGeFw-22" edge="1">
          <mxGeometry relative="1" as="geometry" />
        </mxCell>
        <mxCell id="4pmCsLbF5WX71sMFGeFw-11" value="Package" style="rounded=0;whiteSpace=wrap;html=1;" parent="1" vertex="1">
          <mxGeometry x="526" y="100" width="90" height="30" as="geometry" />
        </mxCell>
        <mxCell id="4pmCsLbF5WX71sMFGeFw-12" value="Reporting&amp;amp;notifications" style="rounded=0;whiteSpace=wrap;html=1;" parent="1" vertex="1">
          <mxGeometry x="320" y="155" width="360" height="30" as="geometry" />
        </mxCell>
        <mxCell id="4pmCsLbF5WX71sMFGeFw-13" value="开发人员" style="text;html=1;strokeColor=none;fillColor=none;align=center;verticalAlign=middle;whiteSpace=wrap;rounded=0;fontSize=13;" parent="1" vertex="1">
          <mxGeometry x="1" y="296" width="60" height="30" as="geometry" />
        </mxCell>
        <mxCell id="4pmCsLbF5WX71sMFGeFw-15" value="提交代码" style="text;html=1;strokeColor=none;fillColor=none;align=center;verticalAlign=middle;whiteSpace=wrap;rounded=0;fontSize=13;" parent="1" vertex="1">
          <mxGeometry x="-29" y="185" width="60" height="30" as="geometry" />
        </mxCell>
        <mxCell id="4pmCsLbF5WX71sMFGeFw-16" value="&lt;font style=&quot;font-size: 26px;&quot;&gt;gitlab&lt;/font&gt;" style="text;html=1;strokeColor=none;fillColor=none;align=center;verticalAlign=middle;whiteSpace=wrap;rounded=0;fontSize=26;fontFamily=Times New Roman;fontStyle=1;fontColor=#394d54;" parent="1" vertex="1">
          <mxGeometry x="1" y="125.30999999999989" width="54" height="49.79" as="geometry" />
        </mxCell>
        <mxCell id="4pmCsLbF5WX71sMFGeFw-25" style="edgeStyle=orthogonalEdgeStyle;rounded=0;orthogonalLoop=1;jettySize=auto;html=1;exitX=0.5;exitY=0;exitDx=0;exitDy=0;strokeWidth=2;fontSize=13;" parent="1" source="4pmCsLbF5WX71sMFGeFw-22" target="4pmCsLbF5WX71sMFGeFw-24" edge="1">
          <mxGeometry relative="1" as="geometry" />
        </mxCell>
        <mxCell id="4pmCsLbF5WX71sMFGeFw-26" style="edgeStyle=orthogonalEdgeStyle;rounded=0;orthogonalLoop=1;jettySize=auto;html=1;exitX=1;exitY=0.5;exitDx=0;exitDy=0;entryX=0;entryY=0.5;entryDx=0;entryDy=0;strokeWidth=2;fontSize=13;" parent="1" source="4pmCsLbF5WX71sMFGeFw-22" target="4pmCsLbF5WX71sMFGeFw-5" edge="1">
          <mxGeometry relative="1" as="geometry" />
        </mxCell>
        <mxCell id="4pmCsLbF5WX71sMFGeFw-30" style="edgeStyle=orthogonalEdgeStyle;rounded=0;orthogonalLoop=1;jettySize=auto;html=1;exitX=0.5;exitY=1;exitDx=0;exitDy=0;entryX=1;entryY=0.5;entryDx=0;entryDy=0;strokeWidth=2;fontSize=13;" parent="1" source="4pmCsLbF5WX71sMFGeFw-22" target="4pmCsLbF5WX71sMFGeFw-12" edge="1">
          <mxGeometry relative="1" as="geometry" />
        </mxCell>
        <mxCell id="4pmCsLbF5WX71sMFGeFw-22" value="deploy" style="rounded=0;whiteSpace=wrap;html=1;" parent="1" vertex="1">
          <mxGeometry x="661" y="100" width="90" height="30" as="geometry" />
        </mxCell>
        <mxCell id="4pmCsLbF5WX71sMFGeFw-46" style="edgeStyle=orthogonalEdgeStyle;rounded=0;orthogonalLoop=1;jettySize=auto;html=1;exitX=1;exitY=0.5;exitDx=0;exitDy=0;entryX=0.5;entryY=0;entryDx=0;entryDy=0;strokeWidth=2;fontSize=13;" parent="1" source="4pmCsLbF5WX71sMFGeFw-24" target="4pmCsLbF5WX71sMFGeFw-5" edge="1">
          <mxGeometry relative="1" as="geometry" />
        </mxCell>
        <mxCell id="4pmCsLbF5WX71sMFGeFw-24" value="本地包库" style="rounded=0;whiteSpace=wrap;html=1;" parent="1" vertex="1">
          <mxGeometry x="661" y="26" width="90" height="30" as="geometry" />
        </mxCell>
        <mxCell id="4pmCsLbF5WX71sMFGeFw-33" value="发布" style="text;html=1;strokeColor=none;fillColor=none;align=center;verticalAlign=middle;whiteSpace=wrap;rounded=0;fontSize=13;" parent="1" vertex="1">
          <mxGeometry x="790" y="12" width="60" height="30" as="geometry" />
        </mxCell>
        <mxCell id="4pmCsLbF5WX71sMFGeFw-34" value="构建" style="text;html=1;strokeColor=none;fillColor=none;align=center;verticalAlign=middle;whiteSpace=wrap;rounded=0;fontSize=13;" parent="1" vertex="1">
          <mxGeometry x="190" y="92" width="60" height="30" as="geometry" />
        </mxCell>
        <mxCell id="4pmCsLbF5WX71sMFGeFw-36" value="测试" style="text;html=1;strokeColor=none;fillColor=none;align=center;verticalAlign=middle;whiteSpace=wrap;rounded=0;fontSize=13;" parent="1" vertex="1">
          <mxGeometry x="331" y="89.84" width="60" height="30" as="geometry" />
        </mxCell>
        <mxCell id="4pmCsLbF5WX71sMFGeFw-37" value="打包" style="text;html=1;strokeColor=none;fillColor=none;align=center;verticalAlign=middle;whiteSpace=wrap;rounded=0;fontSize=13;" parent="1" vertex="1">
          <mxGeometry x="469" y="90" width="60" height="30" as="geometry" />
        </mxCell>
        <mxCell id="4pmCsLbF5WX71sMFGeFw-41" value="构建" style="text;html=1;strokeColor=none;fillColor=none;align=center;verticalAlign=middle;whiteSpace=wrap;rounded=0;fontSize=13;" parent="1" vertex="1">
          <mxGeometry x="605" y="90" width="60" height="30" as="geometry" />
        </mxCell>
        <mxCell id="4pmCsLbF5WX71sMFGeFw-43" value="存储" style="text;html=1;strokeColor=none;fillColor=none;align=center;verticalAlign=middle;whiteSpace=wrap;rounded=0;fontSize=13;" parent="1" vertex="1">
          <mxGeometry x="692" y="65" width="60" height="30" as="geometry" />
        </mxCell>
        <mxCell id="4pmCsLbF5WX71sMFGeFw-44" value="发布" style="text;html=1;strokeColor=none;fillColor=none;align=center;verticalAlign=middle;whiteSpace=wrap;rounded=0;fontSize=13;" parent="1" vertex="1">
          <mxGeometry x="758" y="92" width="60" height="30" as="geometry" />
        </mxCell>
      </root>
    </mxGraphModel>
  </diagram>
</mxfile>
